<svg width="35" height="91" viewBox="0 0 35 91" fill="none" xmlns="http://www.w3.org/2000/svg">
<path d="M33.8368 86.4769L23.0084 90.8049L23.0084 89.2715L32.3612 85.6362L23.0084 82.0076L23.0084 80.4741L33.8436 84.8156L33.8436 86.4769L33.8368 86.4769Z" fill="white"/>
<path d="M33.8368 77.4533L23.0084 77.4533L23.0084 70.3979L24.2112 70.3979L24.2112 76.1148L27.7016 76.1148L27.7016 70.5123L28.9044 70.5123L28.9044 76.1148L32.6374 76.1148L32.6374 70.3979L33.8402 70.3979L33.8402 77.4533L33.8368 77.4533Z" fill="white"/>
<path d="M33.8368 59.0354L25.1984 65.3139L33.8368 65.3139L33.8368 66.6523L23.0084 66.6523L23.0084 65.2803L31.4717 59.0825L23.0084 59.0825L23.0084 57.744L33.8436 57.744L33.8436 59.0354L33.8368 59.0354Z" fill="white"/>
<path d="M33.8369 50.9446L24.2079 50.9446L24.2079 54.3479L23.0051 54.3479L23.0051 46.1794L24.2079 46.1794L24.2079 49.6028L33.8403 49.6028L33.8403 50.9412L33.8369 50.9446Z" fill="white"/>
<path d="M29.6289 42.7932L23.0051 42.7932L23.0051 41.4548L29.5985 41.4548C31.5796 41.4548 32.8329 40.3888 32.8329 38.4046C32.8329 36.4205 31.583 35.3545 29.5985 35.3545L23.0051 35.3545L23.0051 34.0161L29.6154 34.0161C32.3107 34.0161 34.0357 35.4857 34.0357 38.408C34.0357 41.3304 32.2972 42.7999 29.6356 42.7999L29.6289 42.7932Z" fill="white"/>
<path d="M33.8368 23.6516L29.5311 26.3957L29.5311 28.5446L33.8368 28.5446L33.8368 29.883L23.0084 29.883L23.0084 25.555C23.0084 23.5843 24.2752 22.182 26.2731 22.182C28.271 22.182 29.2952 23.5036 29.4233 24.9766L33.8436 22.071L33.8436 23.6549L33.8368 23.6516ZM26.2664 23.5709C25.0501 23.5709 24.2045 24.4419 24.2045 25.7198L24.2045 28.5446L28.3451 28.5446L28.3451 25.7198C28.3451 24.4452 27.4826 23.5709 26.2664 23.5709Z" fill="white"/>
<path d="M33.8368 18.4528L23.0084 18.4528L23.0084 11.3974L24.2112 11.3974L24.2112 17.1144L27.7016 17.1144L27.7016 11.5118L28.9044 11.5118L28.9044 17.1144L32.6374 17.1144L32.6374 11.3974L33.8402 11.3974L33.8402 18.4528L33.8368 18.4528Z" fill="white"/>
<path d="M32.3107 8.29698L31.2899 7.5067C32.085 6.79713 32.8329 5.63693 32.8329 4.11691C32.8329 2.1967 31.7919 1.58464 30.9664 1.58464C28.1734 1.58464 29.7165 7.96069 25.8521 7.96069C24.0664 7.96069 22.8468 6.37676 22.8468 4.26486C22.8468 2.62041 23.3993 1.34251 24.3562 0.441259L25.3467 1.24499C24.4539 2.05209 24.0462 3.18202 24.0462 4.36239C24.0462 5.65374 24.7436 6.57181 25.7678 6.57181C28.2037 6.57181 26.8089 0.195774 30.8519 0.195774C32.4253 0.195774 34.0324 1.26181 34.0324 4.16735C34.0324 6.03711 33.3147 7.41254 32.3107 8.30034L32.3107 8.29698Z" fill="white"/>
<path d="M7.06934 76.089L0.213135 76.0891L0.213135 73.6308L6.98174 73.6308C8.57198 73.6308 9.66695 72.7093 9.66695 70.9506C9.66695 69.1918 8.57198 68.2871 6.98174 68.2871L0.213134 68.2871L0.213134 65.8121L7.05249 65.8121C9.88931 65.8121 11.8232 67.4834 11.8232 70.9472C11.8232 74.411 9.87583 76.0823 7.06934 76.0823L7.06934 76.089Z" fill="white"/>
<path d="M11.6176 59.581L2.35247 59.581L2.35247 62.9103L0.216431 62.9103L0.21643 53.8305L2.35246 53.8305L2.35246 57.1396L11.6176 57.1396L11.6176 59.581Z" fill="white"/>
<path d="M10.0094 51.7539L8.16314 50.439C9.00205 49.6353 9.70283 48.391 9.70283 46.8205C9.70283 45.4888 9.08628 44.8398 8.43941 44.8398C6.42129 44.8398 7.80601 51.3907 3.51709 51.3907C1.62026 51.3907 0.0468749 49.753 0.0468748 47.0727C0.0468747 45.2635 0.592676 43.7637 1.63711 42.6371L3.41602 43.9856C2.56025 44.907 2.16943 46.1345 2.16943 47.2947C2.16943 48.3372 2.63101 48.9156 3.31494 48.9156C5.12754 48.9156 3.91465 42.3815 8.16988 42.3815C10.2554 42.3815 11.8288 43.8645 11.8288 46.9382C11.8288 49.1207 11.0943 50.6912 10.0162 51.7505L10.0094 51.7539Z" fill="white"/>
<path d="M11.6177 39.375L0.213135 39.375L0.213135 36.9503L11.6177 36.9503L11.6177 39.375Z" fill="white"/>
<path d="M11.6177 33.7355L9.6501 33.7355L2.34917 28.3616L2.34917 33.7355L0.213135 33.7355L0.213134 25.187L2.1605 25.187L9.47827 30.5609L9.47827 25.066L11.6143 25.066L11.6143 33.7355L11.6177 33.7355Z" fill="white"/>
<path d="M11.6177 21.8513L0.213135 21.8513L0.213134 13.7972L2.34917 13.7972L2.34917 19.4267L4.76148 19.4267L4.76148 13.9149L6.89751 13.9149L6.89751 19.4267L9.47827 19.4267L9.47827 13.7972L11.6143 13.7972L11.6143 21.8513L11.6177 21.8513Z" fill="white"/>
<path d="M11.6177 10.5292L0.213135 10.5292L0.213135 6.03976C0.213134 2.47173 2.48731 5.62264e-06 5.92383 5.47242e-06C9.36035 5.32221e-06 11.6177 2.4751 11.6177 6.03976L11.6177 10.5292ZM5.92383 2.4751C3.90572 2.4751 2.34917 3.70255 2.34917 6.04312L2.34917 8.10794L9.47827 8.10794L9.47827 6.04312C9.47827 3.78998 7.85435 2.4751 5.92046 2.4751L5.92383 2.4751Z" fill="white"/>
<path d="M-2.58273e-07 85.0909C-1.15686e-07 88.3529 2.64815 90.9995 5.91958 90.9995C9.19102 90.9995 11.8392 88.3562 11.8392 85.0909C11.8392 81.8255 9.19102 79.1823 5.91958 79.1823C2.64814 79.1823 -4.01007e-07 81.8255 -2.58273e-07 85.0909ZM9.34937 85.0909C9.34937 86.9842 7.81304 88.5143 5.91958 88.5143C4.02612 88.5143 2.4898 86.9808 2.4898 85.0909C2.4898 83.2009 4.02612 81.6675 5.91958 81.6675C7.81304 81.6675 9.34937 83.2009 9.34937 85.0909Z" fill="white"/>
</svg>
